<mxfile host="a4d93890-aaca-48f0-b32e-80d5ba2baf0d" modified="2020-09-24T23:39:56.959Z" agent="5.0 (Windows NT 10.0; Win64; x64) AppleWebKit/537.36 (KHTML, like Gecko) Code/1.49.1 Chrome/83.0.4103.122 Electron/9.2.1 Safari/537.36" etag="nwpmMaNxDo06Goq-ocSE" version="13.1.3" pages="2">
    <diagram id="6hGFLwfOUW9BJ-s0fimq" name="Hub">
        <mxGraphModel dx="622" dy="929" grid="1" gridSize="10" guides="1" tooltips="1" connect="1" arrows="1" fold="1" page="1" pageScale="1" pageWidth="827" pageHeight="1169" math="0" shadow="0">
            <root>
                <mxCell id="0"/>
                <mxCell id="1" parent="0"/>
                <mxCell id="23" value="notify" style="rounded=0;orthogonalLoop=1;jettySize=auto;html=1;" parent="1" source="3" target="49" edge="1">
                    <mxGeometry x="-0.0687" y="3" relative="1" as="geometry">
                        <mxPoint as="offset"/>
                        <mxPoint x="360" y="163.18181818181813" as="targetPoint"/>
                    </mxGeometry>
                </mxCell>
                <mxCell id="24" style="rounded=0;orthogonalLoop=1;jettySize=auto;html=1;" parent="1" source="3" target="18" edge="1">
                    <mxGeometry relative="1" as="geometry"/>
                </mxCell>
                <mxCell id="32" value="store" style="edgeLabel;html=1;align=center;verticalAlign=middle;resizable=0;points=[];" parent="24" vertex="1" connectable="0">
                    <mxGeometry x="-0.1667" y="2" relative="1" as="geometry">
                        <mxPoint x="-143" y="1.9999999999999991" as="offset"/>
                    </mxGeometry>
                </mxCell>
                <mxCell id="50" style="rounded=0;orthogonalLoop=1;jettySize=auto;html=1;" parent="1" source="3" target="19" edge="1">
                    <mxGeometry relative="1" as="geometry"/>
                </mxCell>
                <mxCell id="51" value="index" style="edgeLabel;html=1;align=center;verticalAlign=middle;resizable=0;points=[];" parent="50" vertex="1" connectable="0">
                    <mxGeometry x="0.1817" y="-1" relative="1" as="geometry">
                        <mxPoint x="-21.8" y="-22.6" as="offset"/>
                    </mxGeometry>
                </mxCell>
                <mxCell id="3" value="AwsProductSender" style="rounded=0;whiteSpace=wrap;html=1;" parent="1" vertex="1">
                    <mxGeometry x="120" y="260" width="120" height="60" as="geometry"/>
                </mxCell>
                <mxCell id="18" value="Amazon S3" style="outlineConnect=0;fontColor=#232F3E;gradientColor=none;strokeColor=#ffffff;fillColor=#232F3E;dashed=0;verticalLabelPosition=middle;verticalAlign=bottom;align=center;html=1;whiteSpace=wrap;fontSize=10;fontStyle=1;spacing=3;shape=mxgraph.aws4.productIcon;prIcon=mxgraph.aws4.s3;" parent="1" vertex="1">
                    <mxGeometry x="680" y="240" width="80" height="100" as="geometry"/>
                </mxCell>
                <mxCell id="19" value="Amazon&#10;Aurora" style="outlineConnect=0;fontColor=#232F3E;gradientColor=none;strokeColor=#ffffff;fillColor=#232F3E;dashed=0;verticalLabelPosition=middle;verticalAlign=bottom;align=center;html=1;whiteSpace=wrap;fontSize=10;fontStyle=1;spacing=3;shape=mxgraph.aws4.productIcon;prIcon=mxgraph.aws4.aurora;" parent="1" vertex="1">
                    <mxGeometry x="360" y="400" width="80" height="110" as="geometry"/>
                </mxCell>
                <mxCell id="33" value="connect,&lt;br&gt;request" style="edgeStyle=none;rounded=0;orthogonalLoop=1;jettySize=auto;html=1;exitX=0;exitY=0.5;exitDx=0;exitDy=0;" parent="1" source="27" target="54" edge="1">
                    <mxGeometry relative="1" as="geometry">
                        <mxPoint x="720" y="530" as="sourcePoint"/>
                    </mxGeometry>
                </mxCell>
                <mxCell id="66" style="edgeStyle=none;rounded=0;orthogonalLoop=1;jettySize=auto;html=1;" parent="1" source="27" target="18" edge="1">
                    <mxGeometry relative="1" as="geometry"/>
                </mxCell>
                <mxCell id="67" value="download" style="edgeLabel;html=1;align=center;verticalAlign=middle;resizable=0;points=[];" parent="66" vertex="1" connectable="0">
                    <mxGeometry x="-0.1409" y="1" relative="1" as="geometry">
                        <mxPoint x="-8" y="-1" as="offset"/>
                    </mxGeometry>
                </mxCell>
                <mxCell id="27" value="AwsReceiver" style="rounded=0;whiteSpace=wrap;html=1;" parent="1" vertex="1">
                    <mxGeometry x="880" y="260" width="120" height="60" as="geometry"/>
                </mxCell>
                <mxCell id="38" style="edgeStyle=none;rounded=0;orthogonalLoop=1;jettySize=auto;html=1;" parent="1" source="30" target="3" edge="1">
                    <mxGeometry relative="1" as="geometry"/>
                </mxCell>
                <mxCell id="30" value="SocketReceiver,&lt;br&gt;EIDSReceiver" style="rounded=0;whiteSpace=wrap;html=1;" parent="1" vertex="1">
                    <mxGeometry x="120" y="105" width="120" height="60" as="geometry"/>
                </mxCell>
                <mxCell id="40" style="edgeStyle=none;rounded=0;orthogonalLoop=1;jettySize=auto;html=1;exitX=0.5;exitY=0;exitDx=0;exitDy=0;" parent="1" edge="1">
                    <mxGeometry relative="1" as="geometry">
                        <mxPoint x="630" y="140" as="sourcePoint"/>
                        <mxPoint x="630" y="140" as="targetPoint"/>
                    </mxGeometry>
                </mxCell>
                <mxCell id="62" style="edgeStyle=none;rounded=0;orthogonalLoop=1;jettySize=auto;html=1;" parent="1" source="49" target="61" edge="1">
                    <mxGeometry relative="1" as="geometry"/>
                </mxCell>
                <mxCell id="49" value="Amazon SNS" style="outlineConnect=0;fontColor=#232F3E;gradientColor=none;strokeColor=#ffffff;fillColor=#232F3E;dashed=0;verticalLabelPosition=middle;verticalAlign=bottom;align=center;html=1;whiteSpace=wrap;fontSize=10;fontStyle=1;spacing=3;shape=mxgraph.aws4.productIcon;prIcon=mxgraph.aws4.sns;" parent="1" vertex="1">
                    <mxGeometry x="360" y="560" width="80" height="100" as="geometry"/>
                </mxCell>
                <mxCell id="57" style="edgeStyle=none;rounded=0;orthogonalLoop=1;jettySize=auto;html=1;" parent="1" source="53" target="19" edge="1">
                    <mxGeometry relative="1" as="geometry"/>
                </mxCell>
                <mxCell id="53" value="connect,&lt;br&gt;disconnect" style="outlineConnect=0;fontColor=#232F3E;gradientColor=none;strokeColor=#232F3E;fillColor=#ffffff;dashed=0;verticalLabelPosition=bottom;verticalAlign=top;align=center;html=1;fontSize=12;fontStyle=0;aspect=fixed;shape=mxgraph.aws4.resourceIcon;resIcon=mxgraph.aws4.lambda_function;" parent="1" vertex="1">
                    <mxGeometry x="530" y="360" width="60" height="60" as="geometry"/>
                </mxCell>
                <mxCell id="64" value="request" style="outlineConnect=0;fontColor=#232F3E;gradientColor=none;strokeColor=#232F3E;fillColor=#ffffff;dashed=0;verticalLabelPosition=bottom;verticalAlign=top;align=center;html=1;fontSize=12;fontStyle=0;aspect=fixed;shape=mxgraph.aws4.resourceIcon;resIcon=mxgraph.aws4.lambda_function;" parent="1" vertex="1">
                    <mxGeometry x="530" y="480" width="60" height="60" as="geometry"/>
                </mxCell>
                <mxCell id="60" style="edgeStyle=none;rounded=0;orthogonalLoop=1;jettySize=auto;html=1;" parent="1" source="64" target="19" edge="1">
                    <mxGeometry relative="1" as="geometry">
                        <mxPoint x="530" y="455" as="sourcePoint"/>
                    </mxGeometry>
                </mxCell>
                <mxCell id="58" style="edgeStyle=none;rounded=0;orthogonalLoop=1;jettySize=auto;html=1;" parent="1" source="54" target="53" edge="1">
                    <mxGeometry relative="1" as="geometry"/>
                </mxCell>
                <mxCell id="59" style="edgeStyle=none;rounded=0;orthogonalLoop=1;jettySize=auto;html=1;" parent="1" source="54" target="64" edge="1">
                    <mxGeometry relative="1" as="geometry">
                        <mxPoint x="590" y="455" as="targetPoint"/>
                    </mxGeometry>
                </mxCell>
                <mxCell id="54" value="Amazon API Gateway" style="outlineConnect=0;fontColor=#232F3E;gradientColor=none;strokeColor=#ffffff;fillColor=#232F3E;dashed=0;verticalLabelPosition=middle;verticalAlign=bottom;align=center;html=1;whiteSpace=wrap;fontSize=10;fontStyle=1;spacing=3;shape=mxgraph.aws4.productIcon;prIcon=mxgraph.aws4.api_gateway;" parent="1" vertex="1">
                    <mxGeometry x="680" y="400" width="80" height="110" as="geometry"/>
                </mxCell>
                <mxCell id="63" style="edgeStyle=none;rounded=0;orthogonalLoop=1;jettySize=auto;html=1;" parent="1" source="61" target="54" edge="1">
                    <mxGeometry relative="1" as="geometry"/>
                </mxCell>
                <mxCell id="61" value="broadcast" style="outlineConnect=0;fontColor=#232F3E;gradientColor=none;strokeColor=#232F3E;fillColor=#ffffff;dashed=0;verticalLabelPosition=bottom;verticalAlign=top;align=center;html=1;fontSize=12;fontStyle=0;aspect=fixed;shape=mxgraph.aws4.resourceIcon;resIcon=mxgraph.aws4.lambda_function;" parent="1" vertex="1">
                    <mxGeometry x="530" y="600" width="60" height="60" as="geometry"/>
                </mxCell>
            </root>
        </mxGraphModel>
    </diagram>
    <diagram id="NvExbKf9E_Spd9pIDjGF" name="Indexer">
        <mxGraphModel dx="529" dy="790" grid="1" gridSize="10" guides="1" tooltips="1" connect="1" arrows="1" fold="1" page="1" pageScale="1" pageWidth="850" pageHeight="1100" math="0" shadow="0">
            <root>
                <mxCell id="tMXbSzah9lJ0fOQAqLaJ-0"/>
                <mxCell id="tMXbSzah9lJ0fOQAqLaJ-1" parent="tMXbSzah9lJ0fOQAqLaJ-0"/>
                <mxCell id="Y6z_k7PLbtC7x86EVh8g-1" style="edgeStyle=orthogonalEdgeStyle;rounded=0;orthogonalLoop=1;jettySize=auto;html=1;entryX=0.5;entryY=0;entryDx=0;entryDy=0;" edge="1" parent="tMXbSzah9lJ0fOQAqLaJ-1" source="tMXbSzah9lJ0fOQAqLaJ-2" target="Y6z_k7PLbtC7x86EVh8g-0">
                    <mxGeometry relative="1" as="geometry"/>
                </mxCell>
                <mxCell id="tMXbSzah9lJ0fOQAqLaJ-2" value="AwsReceiver" style="rounded=0;whiteSpace=wrap;html=1;" vertex="1" parent="tMXbSzah9lJ0fOQAqLaJ-1">
                    <mxGeometry x="80" y="120" width="120" height="60" as="geometry"/>
                </mxCell>
                <mxCell id="tMXbSzah9lJ0fOQAqLaJ-3" value="Amazon&#10;Aurora" style="outlineConnect=0;fontColor=#232F3E;gradientColor=none;strokeColor=#ffffff;fillColor=#232F3E;dashed=0;verticalLabelPosition=middle;verticalAlign=bottom;align=center;html=1;whiteSpace=wrap;fontSize=10;fontStyle=1;spacing=3;shape=mxgraph.aws4.productIcon;prIcon=mxgraph.aws4.aurora;" vertex="1" parent="tMXbSzah9lJ0fOQAqLaJ-1">
                    <mxGeometry x="320" y="280" width="80" height="110" as="geometry"/>
                </mxCell>
                <mxCell id="tMXbSzah9lJ0fOQAqLaJ-4" value="Amazon S3" style="outlineConnect=0;fontColor=#232F3E;gradientColor=none;strokeColor=#ffffff;fillColor=#232F3E;dashed=0;verticalLabelPosition=middle;verticalAlign=bottom;align=center;html=1;whiteSpace=wrap;fontSize=10;fontStyle=1;spacing=3;shape=mxgraph.aws4.productIcon;prIcon=mxgraph.aws4.s3;" vertex="1" parent="tMXbSzah9lJ0fOQAqLaJ-1">
                    <mxGeometry x="320" y="120" width="80" height="100" as="geometry"/>
                </mxCell>
                <mxCell id="Y6z_k7PLbtC7x86EVh8g-2" style="edgeStyle=orthogonalEdgeStyle;rounded=0;orthogonalLoop=1;jettySize=auto;html=1;" edge="1" parent="tMXbSzah9lJ0fOQAqLaJ-1" source="Y6z_k7PLbtC7x86EVh8g-0" target="tMXbSzah9lJ0fOQAqLaJ-3">
                    <mxGeometry relative="1" as="geometry"/>
                </mxCell>
                <mxCell id="Y6z_k7PLbtC7x86EVh8g-3" value="index" style="edgeLabel;html=1;align=center;verticalAlign=middle;resizable=0;points=[];" vertex="1" connectable="0" parent="Y6z_k7PLbtC7x86EVh8g-2">
                    <mxGeometry x="-0.3" y="-2" relative="1" as="geometry">
                        <mxPoint as="offset"/>
                    </mxGeometry>
                </mxCell>
                <mxCell id="Y6z_k7PLbtC7x86EVh8g-8" style="edgeStyle=none;rounded=0;orthogonalLoop=1;jettySize=auto;html=1;" edge="1" parent="tMXbSzah9lJ0fOQAqLaJ-1" source="Y6z_k7PLbtC7x86EVh8g-0" target="tMXbSzah9lJ0fOQAqLaJ-4">
                    <mxGeometry relative="1" as="geometry"/>
                </mxCell>
                <mxCell id="ASTXVSSrqzE9-W_bEEke-1" style="edgeStyle=none;rounded=0;orthogonalLoop=1;jettySize=auto;html=1;dashed=1;" edge="1" parent="tMXbSzah9lJ0fOQAqLaJ-1" source="Y6z_k7PLbtC7x86EVh8g-0" target="ASTXVSSrqzE9-W_bEEke-0">
                    <mxGeometry relative="1" as="geometry"/>
                </mxCell>
                <mxCell id="Y6z_k7PLbtC7x86EVh8g-0" value="Indexer" style="rounded=0;whiteSpace=wrap;html=1;" vertex="1" parent="tMXbSzah9lJ0fOQAqLaJ-1">
                    <mxGeometry x="80" y="305" width="120" height="60" as="geometry"/>
                </mxCell>
                <mxCell id="Y6z_k7PLbtC7x86EVh8g-6" value="query" style="edgeStyle=none;rounded=0;orthogonalLoop=1;jettySize=auto;html=1;" edge="1" parent="tMXbSzah9lJ0fOQAqLaJ-1" source="Y6z_k7PLbtC7x86EVh8g-5" target="tMXbSzah9lJ0fOQAqLaJ-3">
                    <mxGeometry relative="1" as="geometry"/>
                </mxCell>
                <mxCell id="Y6z_k7PLbtC7x86EVh8g-7" style="edgeStyle=none;rounded=0;orthogonalLoop=1;jettySize=auto;html=1;" edge="1" parent="tMXbSzah9lJ0fOQAqLaJ-1" source="Y6z_k7PLbtC7x86EVh8g-5" target="tMXbSzah9lJ0fOQAqLaJ-4">
                    <mxGeometry relative="1" as="geometry"/>
                </mxCell>
                <mxCell id="Y6z_k7PLbtC7x86EVh8g-5" value="Web Service" style="rounded=0;whiteSpace=wrap;html=1;" vertex="1" parent="tMXbSzah9lJ0fOQAqLaJ-1">
                    <mxGeometry x="520" y="305" width="120" height="60" as="geometry"/>
                </mxCell>
                <mxCell id="ASTXVSSrqzE9-W_bEEke-0" value="Amazon SNS" style="outlineConnect=0;fontColor=#232F3E;gradientColor=none;strokeColor=#ffffff;fillColor=#999999;dashed=0;verticalLabelPosition=middle;verticalAlign=bottom;align=center;html=1;whiteSpace=wrap;fontSize=10;fontStyle=1;spacing=3;shape=mxgraph.aws4.productIcon;prIcon=mxgraph.aws4.sns;" vertex="1" parent="tMXbSzah9lJ0fOQAqLaJ-1">
                    <mxGeometry x="320" y="440" width="80" height="100" as="geometry"/>
                </mxCell>
            </root>
        </mxGraphModel>
    </diagram>
</mxfile>